<?xml version="1.0" standalone="no"?>
<!DOCTYPE svg PUBLIC "-//W3C//DTD SVG 20010904//EN"
 "http://www.w3.org/TR/2001/REC-SVG-20010904/DTD/svg10.dtd">
<svg version="1.0" xmlns="http://www.w3.org/2000/svg"
 width="500.000000pt" height="500.000000pt" viewBox="0 0 500.000000 500.000000"
 preserveAspectRatio="xMidYMid meet">

<g transform="translate(0.000000,500.000000) scale(0.100000,-0.100000)"
fill="#000000" stroke="none">
<path d="M757 3408 c-4 -607 -7 -1511 -7 -2011 l0 -907 448 2 447 3 3 1048 2
1047 58 2 c31 1 344 2 694 3 l638 1 40 39 c117 114 154 340 80 491 -17 34 -51
85 -76 113 l-46 51 -679 0 -679 0 0 135 0 135 48 1 c26 0 367 0 757 -1 l710
-1 48 -31 c107 -68 212 -224 253 -373 10 -37 18 -116 21 -206 5 -128 3 -155
-17 -225 -49 -177 -147 -314 -272 -379 l-73 -39 -657 2 c-361 2 -659 -1 -662
-6 -4 -8 76 -143 316 -532 52 -85 238 -389 413 -675 174 -286 329 -538 344
-560 l27 -40 543 -3 c469 -2 542 0 538 12 -6 14 -404 612 -531 796 -36 52 -66
100 -66 107 0 7 9 17 20 23 43 23 226 176 300 250 269 273 443 581 495 880 21
123 21 528 0 690 -86 650 -377 1079 -839 1236 l-70 24 -1281 0 -1282 0 -6
-1102z"/>
</g>
</svg>
